<svg width="156" height="449" viewBox="0 0 156 449" fill="none" xmlns="http://www.w3.org/2000/svg">
<g opacity="0.2" clip-path="url(#clip0_516_59)">
<path d="M235 210.661L-82.271 527.932" stroke="white" stroke-width="2"/>
<path d="M235 38.8601L-82.271 356.132" stroke="white" stroke-width="2"/>
<path d="M235 198.389L-82.271 515.661" stroke="white" stroke-width="2"/>
<path d="M235 26.5886L-82.2715 343.86" stroke="white" stroke-width="2"/>
<path d="M235 186.118L-82.2715 503.389" stroke="white" stroke-width="2"/>
<path d="M235 14.3171L-82.271 331.589" stroke="white" stroke-width="2"/>
<path d="M235 173.846L-82.271 491.118" stroke="white" stroke-width="2"/>
<path d="M235 2.04562L-82.2715 319.317" stroke="white" stroke-width="2"/>
<path d="M235 161.575L-82.2715 478.846" stroke="white" stroke-width="2"/>
<path d="M235 -10.2259L-82.271 307.046" stroke="white" stroke-width="2"/>
<path d="M235 149.303L-82.271 466.575" stroke="white" stroke-width="2"/>
<path d="M235 -22.4974L-82.2715 294.774" stroke="white" stroke-width="2"/>
<path d="M235 137.032L-82.2715 454.303" stroke="white" stroke-width="2"/>
<path d="M235 124.76L-82.271 442.032" stroke="white" stroke-width="2"/>
<path d="M235 112.489L-82.2715 429.761" stroke="white" stroke-width="2"/>
<path d="M235 100.217L-82.271 417.489" stroke="white" stroke-width="2"/>
<path d="M235 87.946L-82.2715 405.218" stroke="white" stroke-width="2"/>
<path d="M235 75.6745L-82.271 392.946" stroke="white" stroke-width="2"/>
<path d="M235 63.403L-82.2715 380.675" stroke="white" stroke-width="2"/>
<path d="M235 51.1316L-82.271 368.403" stroke="white" stroke-width="2"/>
</g>
<path d="M148.589 0L0.000167847 0L0.000167847 147L148.589 0Z" fill="white" fill-opacity="0.05"/>
<path d="M148.589 145.411L0.000167847 145.411L0.000167847 294L148.589 145.411Z" fill="white" fill-opacity="0.05"/>
<defs>
<clipPath id="clip0_516_59">
<rect width="155" height="155" fill="white" transform="matrix(-4.37114e-08 -1 -1 4.37114e-08 156 449)"/>
</clipPath>
</defs>
</svg>
