<svg width="20" height="19" viewBox="0 0 20 19" fill="none" xmlns="http://www.w3.org/2000/svg">
<path d="M17.4388 5.67951C17.2568 5.00292 16.7234 4.46956 16.0469 4.28737C14.811 3.94922 9.86734 3.94922 9.86734 3.94922C9.86734 3.94922 4.9239 3.94922 3.68801 4.27455C3.02452 4.45655 2.47806 5.00301 2.29606 5.67951C1.97083 6.9153 1.97083 9.47816 1.97083 9.47816C1.97083 9.47816 1.97083 12.0539 2.29606 13.2768C2.47825 13.9533 3.01151 14.4867 3.68811 14.6689C4.93691 15.0071 9.86753 15.0071 9.86753 15.0071C9.86753 15.0071 14.811 15.0071 16.0469 14.6818C16.7235 14.4997 17.2568 13.9663 17.439 13.2898C17.7641 12.0539 17.7641 9.49118 17.7641 9.49118C17.7641 9.49118 17.7771 6.9153 17.4388 5.67951ZM8.29339 11.8458V7.1105L12.4043 9.47816L8.29339 11.8458Z" fill="white"/>
</svg>
