<svg width="20" height="19" viewBox="0 0 20 19" fill="none" xmlns="http://www.w3.org/2000/svg">
<g clip-path="url(#clip0_388_1825)">
<path d="M19.5802 13.5943C19.5293 13.509 19.2142 12.8243 17.6979 11.417C16.1106 9.94335 16.3238 10.1826 18.2357 7.63458C19.4002 6.08277 19.8657 5.1351 19.72 4.72996C19.5814 4.34379 18.725 4.44566 18.725 4.44566L15.8772 4.46225C15.8772 4.46225 15.6664 4.43382 15.5088 4.5274C15.356 4.6198 15.2577 4.83302 15.2577 4.83302C15.2577 4.83302 14.8063 6.0342 14.2046 7.05532C12.9359 9.21009 12.4277 9.32381 12.2204 9.18995C11.7383 8.8784 11.8591 7.93665 11.8591 7.26854C11.8591 5.18011 12.1754 4.30943 11.2419 4.08436C10.9316 4.00973 10.7041 3.95998 9.91162 3.95169C8.89524 3.94103 8.03404 3.95524 7.54718 4.19334C7.2226 4.35208 6.97265 4.70627 7.12546 4.72641C7.31381 4.75129 7.74027 4.84132 7.96652 5.14931C8.25912 5.54615 8.24845 6.43933 8.24845 6.43933C8.24845 6.43933 8.41667 8.89736 7.85636 9.20298C7.47136 9.41265 6.94422 8.98502 5.81294 7.02926C5.23367 6.02828 4.79538 4.92068 4.79538 4.92068C4.79538 4.92068 4.71127 4.71457 4.56083 4.6044C4.3784 4.47054 4.12253 4.42789 4.12253 4.42789L1.41456 4.44448C1.41456 4.44448 1.00824 4.45632 0.858982 4.63283C0.726308 4.79038 0.848321 5.11496 0.848321 5.11496C0.848321 5.11496 2.96874 10.0748 5.36872 12.5755C7.57087 14.8677 10.0704 14.7173 10.0704 14.7173H11.2028C11.2028 14.7173 11.5452 14.6793 11.7193 14.491C11.8804 14.318 11.8745 13.9935 11.8745 13.9935C11.8745 13.9935 11.852 12.4736 12.558 12.2498C13.2533 12.0294 14.1465 13.7186 15.093 14.369C15.8085 14.8606 16.3522 14.7528 16.3522 14.7528L18.8837 14.7173C18.8837 14.7173 20.2081 14.6355 19.5802 13.5943Z" fill="white"/>
</g>
<defs>
<clipPath id="clip0_388_1825">
<rect width="18.9521" height="18.9521" fill="white" transform="translate(0.797119)"/>
</clipPath>
</defs>
</svg>
