<svg width="20" height="19" viewBox="0 0 20 19" fill="none" xmlns="http://www.w3.org/2000/svg">
<path fill-rule="evenodd" clip-rule="evenodd" d="M2.15699 8.49015C6.76108 6.48422 9.8312 5.16179 11.3673 4.52285C15.7533 2.69857 16.6647 2.38167 17.2587 2.37121C17.3894 2.3689 17.6815 2.40128 17.8707 2.55482C18.0305 2.68447 18.0745 2.85961 18.0955 2.98253C18.1165 3.10545 18.1427 3.38547 18.1219 3.60426C17.8842 6.10157 16.8558 12.1619 16.3326 14.9589C16.1112 16.1424 15.6753 16.5393 15.2532 16.5781C14.3361 16.6625 13.6397 15.972 12.7513 15.3897C11.3613 14.4785 10.5761 13.9113 9.22679 13.0221C7.66749 11.9946 8.67832 11.4298 9.56696 10.5068C9.79952 10.2653 13.8405 6.58971 13.9187 6.25628C13.9285 6.21458 13.9376 6.05913 13.8452 5.97705C13.7529 5.89497 13.6166 5.92304 13.5182 5.94536C13.3788 5.977 11.1583 7.44473 6.8565 10.3485C6.2262 10.7813 5.65529 10.9922 5.14377 10.9812C4.57987 10.969 3.49514 10.6623 2.68876 10.4002C1.6997 10.0787 0.91361 9.90872 0.98206 9.36271C1.01771 9.07831 1.40936 8.78745 2.15699 8.49015Z" fill="white"/>
</svg>
