<svg width="20" height="19" viewBox="0 0 20 19" fill="none" xmlns="http://www.w3.org/2000/svg">
<path d="M10.2263 17.3731C10.174 17.3731 10.1217 17.3731 10.069 17.3728C8.83101 17.3758 7.68712 17.3444 6.57467 17.2767C5.55478 17.2146 4.6238 16.8621 3.88226 16.2575C3.16674 15.674 2.67811 14.8851 2.43001 13.9129C2.21407 13.0666 2.20263 12.2357 2.19166 11.4321C2.18371 10.8555 2.17552 10.1723 2.17383 9.4775C2.17552 8.77981 2.18371 8.09659 2.19166 7.52C2.20263 6.71652 2.21407 5.88568 2.43001 5.03917C2.67811 4.06699 3.16674 3.27809 3.88226 2.69463C4.6238 2.08997 5.55478 1.73751 6.57479 1.67546C7.68724 1.60786 8.83137 1.57629 10.072 1.5793C11.3104 1.57665 12.4539 1.60786 13.5664 1.67546C14.5863 1.73751 15.5172 2.08997 16.2588 2.69463C16.9744 3.27809 17.4629 4.06699 17.711 5.03917C17.927 5.88556 17.9384 6.71652 17.9494 7.52C17.9573 8.09659 17.9656 8.77981 17.9672 9.47461V9.4775C17.9656 10.1723 17.9573 10.8555 17.9494 11.4321C17.9384 12.2356 17.9271 13.0664 17.711 13.9129C17.4629 14.8851 16.9744 15.674 16.2588 16.2575C15.5172 16.8621 14.5863 17.2146 13.5664 17.2767C12.501 17.3415 11.4067 17.3731 10.2263 17.3731ZM10.069 16.1389C11.2869 16.1418 12.4051 16.1111 13.4914 16.045C14.2626 15.9982 14.9312 15.7479 15.479 15.3012C15.9854 14.8882 16.3341 14.3185 16.5154 13.6078C16.6952 12.9033 16.7056 12.1468 16.7156 11.4152C16.7234 10.8425 16.7316 10.1641 16.7333 9.47605C16.7316 8.78789 16.7234 8.1096 16.7156 7.53687C16.7056 6.80532 16.6952 6.04883 16.5154 5.34416C16.3341 4.63346 15.9854 4.06374 15.479 3.65079C14.9312 3.20422 14.2626 2.95395 13.4914 2.90707C12.4051 2.84092 11.2869 2.81043 10.0719 2.81308C8.85426 2.81019 7.73592 2.84092 6.64962 2.90707C5.87843 2.95395 5.20979 3.20422 4.662 3.65079C4.15567 4.06374 3.80694 4.63346 3.62559 5.34416C3.44581 6.04883 3.43545 6.8052 3.42545 7.53687C3.41761 8.11008 3.40942 8.78885 3.40773 9.4775C3.40942 10.1631 3.41761 10.842 3.42545 11.4152C3.43545 12.1468 3.44581 12.9033 3.62559 13.6078C3.80694 14.3185 4.15567 14.8882 4.662 15.3012C5.20979 15.7478 5.87843 15.998 6.64962 16.0449C7.73592 16.1111 8.85451 16.1419 10.069 16.1389ZM10.0396 13.332C7.91353 13.332 6.18366 11.6023 6.18366 9.47605C6.18366 7.34986 7.91353 5.6201 10.0396 5.6201C12.1658 5.6201 13.8956 7.34986 13.8956 9.47605C13.8956 11.6023 12.1658 13.332 10.0396 13.332ZM10.0396 6.854C8.59387 6.854 7.41756 8.03031 7.41756 9.47605C7.41756 10.9218 8.59387 12.0981 10.0396 12.0981C11.4855 12.0981 12.6617 10.9218 12.6617 9.47605C12.6617 8.03031 11.4855 6.854 10.0396 6.854ZM14.3274 4.38619C13.8164 4.38619 13.402 4.80047 13.402 5.31162C13.402 5.82278 13.8164 6.23705 14.3274 6.23705C14.8386 6.23705 15.2529 5.82278 15.2529 5.31162C15.2529 4.80047 14.8386 4.38619 14.3274 4.38619Z" fill="white"/>
</svg>
