<svg width="116" height="32" viewBox="0 0 116 32" fill="none" xmlns="http://www.w3.org/2000/svg">
<path d="M44.5796 12.8907V0.506012H53.6951V2.43752H46.6149V5.0955H49.9763C51.1982 5.02454 52.4022 5.41556 53.3492 6.19098C53.7474 6.5377 54.064 6.9682 54.2764 7.45164C54.4887 7.93509 54.5914 8.45951 54.5773 8.98734C54.591 9.5151 54.4881 10.0394 54.2758 10.5228C54.0635 11.0062 53.7471 11.4367 53.3492 11.7837C52.4022 12.5591 51.1982 12.9501 49.9763 12.8792L44.5796 12.8907ZM46.6149 10.9419H49.9763C50.6368 10.9914 51.2937 10.8078 51.8328 10.423C52.0295 10.2416 52.1865 10.0214 52.2939 9.77627C52.4013 9.53116 52.4567 9.26646 52.4567 8.99887C52.4567 8.73127 52.4013 8.46657 52.2939 8.22147C52.1865 7.97636 52.0295 7.75616 51.8328 7.57474C51.2945 7.18787 50.6375 7.00219 49.9763 7.05007H46.6149V10.9419Z" fill="white"/>
<path d="M56.3882 12.8907V0.506027H58.4235V8.73366L58.2447 10.325H58.4235L63.9989 0.523325H66.7376V12.8907H64.7023V4.66309L64.881 3.07176H64.7023L59.1327 12.8734L56.3882 12.8907Z" fill="white"/>
<path d="M68.1045 9.26416H70.232C70.3503 9.64281 70.5468 9.99244 70.8086 10.2905C71.1424 10.633 71.5455 10.9002 71.991 11.0743C72.4365 11.2483 72.914 11.3251 73.3916 11.2995C75.2174 11.2995 76.1322 10.6499 76.1361 9.35065C76.1434 9.10309 76.0899 8.85751 75.9803 8.63538C75.8708 8.41326 75.7085 8.22135 75.5076 8.07643C74.8869 7.70285 74.1662 7.5297 73.4435 7.58059H71.8522V5.63755H73.4435C74.0765 5.67956 74.7049 5.50467 75.2251 5.1417C75.4162 4.98884 75.5705 4.79494 75.6765 4.57437C75.7825 4.3538 75.8376 4.11221 75.8376 3.86748C75.8376 3.62276 75.7825 3.38116 75.6765 3.1606C75.5705 2.94003 75.4162 2.74613 75.2251 2.59327C74.7049 2.23029 74.0765 2.0554 73.4435 2.09742C73.0183 2.07039 72.5923 2.13518 72.1943 2.28739C71.7964 2.43961 71.4359 2.67568 71.1372 2.97957C70.9067 3.23694 70.732 3.53926 70.6241 3.86748H68.485C68.6612 3.19922 68.9604 2.56962 69.3672 2.01093C70.2718 0.98294 71.528 0.330204 72.8892 0.180858C74.2503 0.0315127 75.6182 0.396345 76.7242 1.20374C77.1102 1.51275 77.4212 1.90515 77.6339 2.3515C77.8465 2.79785 77.9554 3.28657 77.9523 3.781C77.9575 4.17139 77.8759 4.55805 77.7133 4.91304C77.5508 5.26802 77.3114 5.58245 77.0125 5.83358C76.7372 6.07022 76.4282 6.26454 76.0957 6.41015V6.49664C76.4939 6.63986 76.8645 6.85049 77.1912 7.11933C77.5439 7.40824 77.827 7.7728 78.0196 8.186C78.2123 8.5992 78.3095 9.05046 78.304 9.50632C78.3137 10.0221 78.2012 10.5328 77.9758 10.9968C77.7503 11.4608 77.4182 11.8648 77.0067 12.1758C75.9724 12.9236 74.712 13.2921 73.4378 13.2194C72.6011 13.2686 71.7649 13.1145 71.0008 12.77C70.2367 12.4256 69.5673 11.9013 69.0501 11.2418C68.5953 10.6589 68.2727 9.98409 68.1045 9.26416Z" fill="white"/>
<path d="M80.1201 12.8907V0.506027H82.1554V5.63749H88.2613V0.506027H90.2965V12.8907H88.2613V7.58052H82.1266V12.8907H80.1201Z" fill="white"/>
<path d="M92.5161 12.8907V0.506027H101.453V2.43753H94.5341V5.62596H100.11V7.56899H94.5341V10.9304H101.453V12.8792L92.5161 12.8907Z" fill="white"/>
<path d="M104.468 11.3859C103.841 10.7807 103.346 10.0512 103.017 9.24404C102.687 8.4369 102.529 7.56987 102.554 6.69837C102.529 5.82678 102.686 4.95954 103.016 4.1523C103.345 3.34506 103.84 2.61565 104.468 2.01087C105.089 1.39689 105.827 0.914072 106.638 0.591162C107.449 0.268252 108.317 0.111848 109.19 0.131258C110.151 0.0895433 111.108 0.276917 111.982 0.677916C112.856 1.07892 113.623 1.68204 114.218 2.43753C114.749 3.10213 115.141 3.86685 115.371 4.68615H113.336C113.124 4.21014 112.824 3.77797 112.454 3.41193C112.024 2.98502 111.513 2.65026 110.949 2.42818C110.386 2.2061 109.784 2.10137 109.179 2.12042C108.577 2.09842 107.978 2.20016 107.418 2.41935C106.857 2.63854 106.348 2.97049 105.921 3.39464C105.499 3.83642 105.171 4.35879 104.956 4.93044C104.741 5.50209 104.644 6.11125 104.67 6.72144C104.644 7.33162 104.741 7.94079 104.956 8.51244C105.171 9.08409 105.499 9.60645 105.921 10.0482C106.822 10.8917 108.017 11.3489 109.251 11.3219C110.485 11.295 111.659 10.7861 112.523 9.9041C112.917 9.49975 113.226 9.01907 113.428 8.4915H115.463C115.182 9.35913 114.744 10.168 114.172 10.8785C113.594 11.6496 112.838 12.2695 111.968 12.6851C111.099 13.1008 110.142 13.2999 109.179 13.2655C108.308 13.2837 107.442 13.1267 106.633 12.8038C105.823 12.4809 105.087 11.9987 104.468 11.3859Z" fill="white"/>
<path d="M44.0269 15.9523H46.5695L49.216 22.6982H51.7586L54.4051 15.9523H56.9478L51.0206 30.6894H48.478L50.7842 24.9987H47.6304L44.0269 15.9523Z" fill="white"/>
<path d="M59.6114 28.9193C58.8585 28.2005 58.2644 27.332 57.8672 26.3698C57.47 25.4076 57.2786 24.373 57.3052 23.3324C57.2786 22.2917 57.47 21.2571 57.8672 20.2949C58.2644 19.3327 58.8585 18.4642 59.6114 17.7454C60.359 17.018 61.2446 16.4473 62.2159 16.0671C63.1872 15.6869 64.2248 15.5048 65.2676 15.5314C67.8391 15.5314 69.8455 16.4308 71.287 18.2297C71.9279 19.0117 72.4026 19.9161 72.6823 20.8877H70.2491C69.9822 20.3262 69.6148 19.8181 69.1652 19.3886C68.6497 18.8806 68.0364 18.4827 67.3624 18.219C66.6884 17.9554 65.9679 17.8315 65.2445 17.855C64.5255 17.8263 63.8083 17.9461 63.1377 18.207C62.4671 18.4679 61.8575 18.8643 61.3469 19.3713C60.8407 19.8951 60.4463 20.5163 60.1876 21.1973C59.9289 21.8782 59.8113 22.6046 59.8421 23.3324C59.8119 24.0609 59.9297 24.7881 60.1883 25.4698C60.447 26.1516 60.8411 26.7739 61.3469 27.2992C62.4287 28.3031 63.8588 28.8465 65.3343 28.8142C66.8098 28.7819 68.2148 28.1765 69.2517 27.1262C69.7203 26.6429 70.0869 26.0704 70.3299 25.4426H72.7687C72.4315 26.4794 71.9057 27.445 71.2178 28.2909C70.525 29.2111 69.6201 29.9502 68.58 30.4452C67.5399 30.9401 66.3956 31.1762 65.2445 31.1333C64.2056 31.1569 63.1724 30.9732 62.2052 30.5931C61.2381 30.213 60.3563 29.644 59.6114 28.9193Z" fill="white"/>
<path d="M75.2822 30.6894V15.9523H87.4651V30.6894H85.0262V18.2759H77.7211V30.6894H75.2822Z" fill="white"/>
<path d="M90.7002 30.6894V15.9523H101.401V18.2586H93.1391V22.0524H99.81V24.3587H93.1391V28.3947H101.401V30.701L90.7002 30.6894Z" fill="white"/>
<path d="M102.999 30.6894L106.919 23.4189L103.212 15.9235H105.858L108.931 22.2657H109.883L112.956 15.9235H115.602L111.895 23.4189L115.816 30.6894H113.163L109.883 24.4682H108.949L105.645 30.6894H102.999Z" fill="white"/>
<path d="M16.1148 14.5743L14.1025 16.5865H15.3883L17.4005 14.5743H16.1148Z" fill="white"/>
<path d="M18.2539 14.5743L16.2417 16.5865H17.5274L19.5454 14.5743H18.2539Z" fill="white"/>
<path d="M20.3989 14.5743L18.3867 16.5865H19.6725L21.6847 14.5743H20.3989Z" fill="white"/>
<path d="M13.9761 14.5743L11.9639 16.5865H13.2496L15.2618 14.5743H13.9761Z" fill="white"/>
<path d="M11.8368 14.5743L9.81885 16.5865H11.1046L13.1226 14.5743H11.8368Z" fill="white"/>
<path d="M3.396 16.5865H4.58949C4.43945 16.2867 4.37179 15.9524 4.39346 15.6179L3.396 16.5865Z" fill="white"/>
<path d="M22.5386 14.5743L20.5264 16.5865H21.8121L23.8243 14.5743H22.5386Z" fill="white"/>
<path d="M9.69185 14.5743L8.75781 15.5084L9.3978 16.1541L10.9776 14.5743H9.69185Z" fill="white"/>
<path d="M3.26906 14.5743L1.25684 16.5865H2.54258L4.55481 14.5743H3.26906Z" fill="white"/>
<path d="M36.6698 14.5743H35.4302C35.6265 14.8277 35.7536 15.1277 35.7992 15.4449L36.6698 14.5743Z" fill="white"/>
<path d="M37.5232 14.5743L35.7243 16.3905C35.7009 16.4572 35.6739 16.5227 35.6436 16.5865H36.7967L38.8089 14.5743H37.5232Z" fill="white"/>
<path d="M24.6773 14.5743L22.665 16.5865H23.9508L25.9688 14.5743H24.6773Z" fill="white"/>
<path d="M28.9614 14.5743L26.9492 16.5865H28.235L30.2472 14.5743H28.9614Z" fill="white"/>
<path d="M26.8222 14.5743L24.8042 16.5865H26.0957L28.1079 14.5743H26.8222Z" fill="white"/>
<path d="M7.62748 14.384L7.82352 14.5743L8.3309 15.0817L8.40008 15.1566L18.1672 5.38956H17.6482C17.2828 5.38956 16.9323 5.24438 16.6739 4.98595C16.4154 4.72753 16.2702 4.37703 16.2702 4.01156V3.59067L6.00732 13.8536C6.09756 13.8479 6.18807 13.8479 6.27831 13.8536C6.52707 13.8486 6.77436 13.8929 7.00592 13.984C7.23748 14.075 7.44872 14.211 7.62748 14.384Z" fill="white"/>
<path d="M22.5437 5.38956H22.019L31.2095 14.5743H31.1115L29.0993 16.5865H30.3678L31.7976 15.1566L32.3742 14.5801L32.5645 14.3898C32.7405 14.2082 32.951 14.0637 33.1837 13.9647C33.4164 13.8657 33.6665 13.8142 33.9194 13.8132C34.0077 13.8073 34.0963 13.8073 34.1846 13.8132L23.916 3.59067V4.02309C23.9129 4.38556 23.7672 4.73224 23.5103 4.98802C23.2535 5.24379 22.9062 5.38806 22.5437 5.38956Z" fill="white"/>
<path d="M16.2708 27.5817V27.1493C16.2723 26.7848 16.4182 26.4358 16.6765 26.1786C16.9347 25.9214 17.2843 25.7771 17.6488 25.7771H18.1677L8.97145 16.5808L8.33146 15.9408L7.97399 15.5833L7.9048 15.5084L7.25904 14.8684L7.20139 14.8107C6.95715 14.5649 6.6254 14.426 6.27888 14.4244C6.07781 14.43 5.88064 14.4813 5.70231 14.5743C5.58397 14.6373 5.47524 14.7169 5.37943 14.8107C5.17191 15.0193 5.04001 15.2912 5.00466 15.5833C4.98217 15.7962 5.00982 16.0115 5.08538 16.2118C5.15016 16.381 5.25042 16.5343 5.37943 16.6615L16.2708 27.5817Z" fill="white"/>
<path d="M35.2109 15.5833C35.1808 15.3756 35.1017 15.178 34.9803 15.0067C34.9388 14.9457 34.8904 14.8896 34.8362 14.8395C34.7454 14.7464 34.6403 14.6686 34.5248 14.6089C34.3382 14.5104 34.1304 14.459 33.9194 14.459C33.7084 14.459 33.5006 14.5104 33.314 14.6089C33.2523 14.644 33.1927 14.6825 33.1353 14.7242C33.0847 14.7614 33.0365 14.8019 32.9911 14.8453L32.2128 15.5833L22.019 25.777H22.5437C22.9072 25.7786 23.2553 25.9236 23.5124 26.1806C23.7694 26.4376 23.9144 26.7858 23.916 27.1493V27.5817L34.8362 16.6615C34.9983 16.5025 35.1156 16.3037 35.1763 16.0849C35.2185 15.9213 35.2303 15.7512 35.2109 15.5833Z" fill="white"/>
<path d="M17.6491 4.78419H22.5441C22.748 4.78267 22.9431 4.7006 23.0867 4.55588C23.2304 4.41115 23.311 4.2155 23.311 4.01159V1.24983C23.311 1.04645 23.2302 0.851404 23.0864 0.707594C22.9426 0.563784 22.7475 0.482993 22.5441 0.482993H17.6491C17.5479 0.482232 17.4475 0.501506 17.3538 0.539702C17.2601 0.577898 17.1749 0.634262 17.1031 0.705545C17.0313 0.776829 16.9743 0.861621 16.9354 0.955036C16.8965 1.04845 16.8765 1.14864 16.8765 1.24983V4.01159C16.8765 4.2165 16.9579 4.41301 17.1028 4.5579C17.2476 4.7028 17.4442 4.78419 17.6491 4.78419Z" fill="white"/>
<path d="M23.311 27.1493C23.311 26.9459 23.2302 26.7509 23.0864 26.6071C22.9426 26.4633 22.7475 26.3825 22.5442 26.3825H17.6491C17.5479 26.3817 17.4476 26.401 17.3539 26.4392C17.2602 26.4774 17.1749 26.5337 17.1031 26.605C17.0313 26.6763 16.9743 26.7611 16.9354 26.8545C16.8965 26.9479 16.8765 27.0481 16.8765 27.1493V29.9111C16.8757 30.013 16.8951 30.1141 16.9336 30.2085C16.9721 30.3029 17.0289 30.3888 17.1007 30.4611C17.1725 30.5335 17.258 30.5909 17.3521 30.6301C17.4462 30.6693 17.5471 30.6894 17.6491 30.6894H22.5442C22.7481 30.6879 22.9431 30.6058 23.0867 30.4611C23.2304 30.3164 23.311 30.1207 23.311 29.9168V27.1493Z" fill="white"/>
<path d="M0.403809 14.5743V16.5865L2.41603 14.5743H0.403809Z" fill="white"/>
<path d="M0.403598 14.5743C0.296557 14.5743 0.1939 14.6168 0.118211 14.6925C0.0425218 14.7682 0 14.8709 0 14.9779V16.1829C0 16.29 0.0425218 16.3926 0.118211 16.4683C0.1939 16.544 0.296557 16.5865 0.403598 16.5865V14.5743Z" fill="white"/>
<path d="M39.6909 14.5743L37.6787 16.5865H39.7198C39.7728 16.5865 39.8252 16.5761 39.8742 16.5558C39.9232 16.5355 39.9677 16.5058 40.0051 16.4683C40.0426 16.4308 40.0724 16.3863 40.0926 16.3374C40.1129 16.2884 40.1234 16.2359 40.1234 16.1829V14.9779C40.1235 14.9224 40.1122 14.8674 40.0901 14.8165C40.0681 14.7655 40.0357 14.7197 39.9951 14.6818C39.9546 14.6439 39.9066 14.6148 39.8543 14.5963C39.8019 14.5778 39.7463 14.5703 39.6909 14.5743Z" fill="white"/>
</svg>
