<svg width="392" height="392" viewBox="0 0 392 392" fill="none" xmlns="http://www.w3.org/2000/svg">
<g opacity="0.3" clip-path="url(#clip0_324_2942)">
<path d="M-3.09944e-06 0L392 392" stroke="black" stroke-width="2"/>
<path d="M-172.269 0L219.731 392" stroke="black" stroke-width="2"/>
<path d="M-12.3047 0L379.695 392" stroke="black" stroke-width="2"/>
<path d="M-184.574 0L207.426 392" stroke="black" stroke-width="2"/>
<path d="M-24.6094 0L367.391 392" stroke="black" stroke-width="2"/>
<path d="M-196.879 0L195.121 392" stroke="black" stroke-width="2"/>
<path d="M-36.9146 0L355.085 392" stroke="black" stroke-width="2"/>
<path d="M-209.184 0L182.816 392" stroke="black" stroke-width="2"/>
<path d="M-49.2197 0L342.78 392" stroke="black" stroke-width="2"/>
<path d="M-221.488 0L170.512 392" stroke="black" stroke-width="2"/>
<path d="M-61.5249 0L330.475 392" stroke="black" stroke-width="2"/>
<path d="M-233.793 0L158.207 392" stroke="black" stroke-width="2"/>
<path d="M-73.8291 0L318.171 392" stroke="black" stroke-width="2"/>
<path d="M-246.099 0L145.901 392" stroke="black" stroke-width="2"/>
<path d="M-86.1343 0L305.866 392" stroke="black" stroke-width="2"/>
<path d="M-258.403 0L133.597 392" stroke="black" stroke-width="2"/>
<path d="M-98.439 0L293.561 392" stroke="black" stroke-width="2"/>
<path d="M-270.708 0L121.292 392" stroke="black" stroke-width="2"/>
<path d="M-110.745 0L281.255 392" stroke="black" stroke-width="2"/>
<path d="M-283.014 0L108.986 392" stroke="black" stroke-width="2"/>
<path d="M-123.049 0L268.951 392" stroke="black" stroke-width="2"/>
<path d="M-295.318 0L96.6816 392" stroke="black" stroke-width="2"/>
<path d="M-135.354 0L256.646 392" stroke="black" stroke-width="2"/>
<path d="M-307.623 0L84.3774 392" stroke="black" stroke-width="2"/>
<path d="M-147.659 0L244.341 392" stroke="black" stroke-width="2"/>
<path d="M-319.928 0L72.0718 392" stroke="black" stroke-width="2"/>
<path d="M-159.964 0L232.036 392" stroke="black" stroke-width="2"/>
<path d="M-332.233 0L59.7671 392" stroke="black" stroke-width="2"/>
<path d="M-344.537 1.75781L47.4629 393.758" stroke="black" stroke-width="2"/>
<path d="M-356.843 1.75781L35.1572 393.758" stroke="black" stroke-width="2"/>
<path d="M-369.147 1.75781L22.8525 393.758" stroke="black" stroke-width="2"/>
<path d="M-381.453 1.75781L10.5469 393.758" stroke="black" stroke-width="2"/>
</g>
<defs>
<clipPath id="clip0_324_2942">
<rect width="392" height="392" fill="white" transform="matrix(-1 0 0 1 392 0)"/>
</clipPath>
</defs>
</svg>
