<svg width="70" height="70" viewBox="0 0 70 70" fill="none" xmlns="http://www.w3.org/2000/svg">
<g opacity="0.3" clip-path="url(#clip0_388_226)">
<path d="M-42.0083 -45.3127L121.66 118.355" stroke="black" stroke-width="1.03172"/>
<path d="M-42.0083 -133.938L121.66 29.73" stroke="black" stroke-width="1.03172"/>
<path d="M-42.0083 -51.643L121.66 112.025" stroke="black" stroke-width="1.03172"/>
<path d="M-42.008 -140.268L121.66 23.3996" stroke="black" stroke-width="1.03172"/>
<path d="M-42.008 -57.9734L121.66 105.695" stroke="black" stroke-width="1.03172"/>
<path d="M-42.0083 -146.599L121.66 17.0692" stroke="black" stroke-width="1.03172"/>
<path d="M-42.0083 -64.3037L121.66 99.3641" stroke="black" stroke-width="1.03172"/>
<path d="M-42.008 -152.929L121.66 10.7388" stroke="black" stroke-width="1.03172"/>
<path d="M-42.008 -70.6342L121.66 93.0337" stroke="black" stroke-width="1.03172"/>
<path d="M-42.0083 -159.259L121.66 4.40852" stroke="black" stroke-width="1.03172"/>
<path d="M-42.0083 -76.9645L121.66 86.7034" stroke="black" stroke-width="1.03172"/>
<path d="M-42.008 -83.2949L121.66 80.373" stroke="black" stroke-width="1.03172"/>
<path d="M-42.0083 -89.6253L121.66 74.0426" stroke="black" stroke-width="1.03172"/>
<path d="M-42.008 -95.9556L121.66 67.7123" stroke="black" stroke-width="1.03172"/>
<path d="M-42.0083 -102.286L121.66 61.3818" stroke="black" stroke-width="1.03172"/>
<path d="M-42.008 -108.616L121.66 55.0515" stroke="black" stroke-width="1.03172"/>
<path d="M-42.0083 -114.947L121.66 48.7211" stroke="black" stroke-width="1.03172"/>
<path d="M-42.008 -121.277L121.66 42.3908" stroke="black" stroke-width="1.03172"/>
<path d="M-42.0083 -127.608L121.66 36.0604" stroke="black" stroke-width="1.03172"/>
</g>
<defs>
<clipPath id="clip0_388_226">
<rect width="69.1253" height="69.1253" fill="white" transform="translate(0.29248 69.2433) rotate(-90)"/>
</clipPath>
</defs>
</svg>
